FFmpeg version SVN-r25716, Copyright (c) 2000-2010 the FFmpeg developers  built on Nov 10 2010 12:23:18 with gcc 4.1.2 20080704 (Red Hat 4.1.2-48)  configuration: --enable-libmp3lame --enable-shared --disable-mmx --arch=x86_64  libavutil     50.33. 0 / 50.33. 0  libavcore      0.12. 1 /  0.12. 1  libavcodec    52.94. 4 / 52.94. 4  libavformat   52.84. 0 / 52.84. 0  libavdevice   52. 2. 2 / 52. 2. 2  libavfilter    1.59. 0 /  1.59. 0  libswscale     0.12. 0 /  0.12. 0Input #0, avi, from '/RAID10/data/converted_video_files/20154.avi':  Metadata:    encoder         : CanonMVI01  Duration: 00:02:59.99, start: 0.000000, bitrate: 2464 kb/s    Stream #0.0: Video: mjpeg, yuvj422p, 320x240, 15 tbr, 15 tbn, 15 tbc    Stream #0.1: Audio: pcm_u8, 11024 Hz, 1 channels, u8, 88 kb/s[buffer @ 0x272fd40] w:320 h:240 pixfmt:yuvj422p[ffsink @ 0x273d010] auto-inserting filter 'auto-inserted scaler 0' between the filter 'src' and the filter 'out'[scale @ 0x273d330] w:320 h:240 fmt:yuvj422p -> w:320 h:240 fmt:yuv420p flags:0x4Output #0, flv, to '/RAID10/data/converted_video_files/20154.flv':  Metadata:    encoder         : Lavf52.84.0    Stream #0.0: Video: flv, yuv420p, 320x240, q=2-31, 600 kb/s, 1k tbn, 24 tbc    Stream #0.1: Audio: libmp3lame, 22050 Hz, 1 channels, s16, 96 kb/sStream mapping:  Stream #0.0 -> #0.0  Stream #0.1 -> #0.1Press [q] to stop encodingWarning, using s16 intermediate sample format for resamplingframe=   64 fps=  0 q=2.7 size=     398kB time=4.25 bitrate= 766.5kbits/s    frame=  152 fps=145 q=2.7 size=     876kB time=10.08 bitrate= 711.7kbits/s    frame=  240 fps=155 q=2.6 size=    1359kB time=15.94 bitrate= 698.8kbits/s    frame=  317 fps=153 q=2.4 size=    1807kB time=21.08 bitrate= 702.0kbits/s    frame=  390 fps=153 q=2.5 size=    2214kB time=25.94 bitrate= 699.3kbits/s    frame=  457 fps=149 q=1.9 size=    2605kB time=30.42 bitrate= 701.6kbits/s    frame=  530 fps=148 q=2.7 size=    3021kB time=35.29 bitrate= 701.3kbits/s    frame=  587 fps=144 q=2.5 size=    3332kB time=39.08 bitrate= 698.4kbits/s    frame=  660 fps=144 q=2.4 size=    3745kB time=43.94 bitrate= 698.2kbits/s    frame=  750 fps=148 q=2.4 size=    4276kB time=49.95 bitrate= 701.3kbits/s    frame=  827 fps=148 q=2.4 size=    4709kB time=55.08 bitrate= 700.4kbits/s    frame=  906 fps=149 q=2.4 size=    5170kB time=60.38 bitrate= 701.5kbits/s    frame=  982 fps=149 q=2.8 size=    5598kB time=65.42 bitrate= 701.0kbits/s    frame= 1064 fps=150 q=2.4 size=    6073kB time=70.92 bitrate= 701.6kbits/s    frame= 1116 fps=146 q=2.4 size=    6365kB time=74.38 bitrate= 701.1kbits/s    frame= 1181 fps=146 q=2.5 size=    6750kB time=78.71 bitrate= 702.5kbits/s    frame= 1249 fps=145 q=1.9 size=    7145kB time=83.25 bitrate= 703.1kbits/s    frame= 1323 fps=145 q=2.8 size=    7564kB time=88.17 bitrate= 702.8kbits/s    frame= 1373 fps=143 q=2.6 size=    7846kB time=91.50 bitrate= 702.4kbits/s    [mjpeg @ 0x2729eb0] mjpeg_decode_dc: bad vlc: 0:0 (0x283da80)[mjpeg @ 0x2729eb0] error dc[mjpeg @ 0x2729eb0] error y=22 x=6frame= 1426 fps=137 q=4.4 Lsize=    8166kB time=95.04 bitrate= 703.9kbits/s    video:6961kB audio:1126kB global headers:0kB muxing overhead 0.989910%